<svg width="36.25in" height="24.125in" viewBox="0 0 36.25 24.125" xmlns="http://www.w3.org/2000/svg" version="1.1" preserveAspectRatio="xMidYMid meet"><g id="svgGroup" stroke-linecap="round" fill-rule="evenodd" font-size="9pt" stroke="#000" stroke-width="0.25mm" fill="none" style="stroke:#000;stroke-width:0.25mm;fill:none"><path d="M 0 21.125 L 0 22.079 L 0.118 22.079 L 0.118 23.171 L 0 23.171 L 0 24.125 L 1.088 24.125 L 1.088 24.007 L 2.18 24.007 L 2.18 24.125 L 3.271 24.125 L 3.271 24.007 L 4.363 24.007 L 4.363 24.125 L 5.454 24.125 L 5.454 24.007 L 6.546 24.007 L 6.546 24.125 L 7.637 24.125 L 7.637 24.007 L 8.729 24.007 L 8.729 24.125 L 9.82 24.125 L 9.82 24.007 L 10.912 24.007 L 10.912 24.125 L 12 24.125 L 12 23.171 L 11.882 23.171 L 11.882 22.079 L 12 22.079 L 12 21.125 L 10.912 21.125 L 10.912 21.243 L 9.82 21.243 L 9.82 21.125 L 8.729 21.125 L 8.729 21.243 L 7.637 21.243 L 7.637 21.125 L 6.546 21.125 L 6.546 21.243 L 5.454 21.243 L 5.454 21.125 L 4.363 21.125 L 4.363 21.243 L 3.271 21.243 L 3.271 21.125 L 2.18 21.125 L 2.18 21.243 L 1.088 21.243 L 1.088 21.125 L 0 21.125 Z" id="front_outsideCutPath" stroke="#FF0000" stroke-width="0.1" style="stroke:#FF0000;stroke-width:0.1" vector-effect="non-scaling-stroke"/><path d="M 6.437 22.852 L 6.389 22.852 L 6.389 22.644 Q 6.389 22.619 6.381 22.602 A 0.058 0.058 0 0 0 6.371 22.585 Q 6.356 22.57 6.329 22.567 A 0.129 0.129 0 0 0 6.315 22.566 A 0.147 0.147 0 0 0 6.287 22.568 Q 6.257 22.574 6.241 22.593 Q 6.22 22.618 6.218 22.673 A 0.311 0.311 0 0 0 6.218 22.683 L 6.218 22.852 L 6.169 22.852 L 6.169 22.531 L 6.208 22.531 L 6.216 22.574 L 6.219 22.574 A 0.098 0.098 0 0 1 6.257 22.539 A 0.118 0.118 0 0 1 6.261 22.538 A 0.132 0.132 0 0 1 6.307 22.525 A 0.159 0.159 0 0 1 6.321 22.525 A 0.192 0.192 0 0 1 6.353 22.527 Q 6.371 22.53 6.385 22.537 A 0.087 0.087 0 0 1 6.408 22.553 Q 6.43 22.574 6.436 22.615 A 0.212 0.212 0 0 1 6.437 22.642 L 6.437 22.852 Z M 5.503 22.531 L 5.503 22.568 L 5.421 22.568 L 5.421 22.852 L 5.373 22.852 L 5.373 22.568 L 5.315 22.568 L 5.315 22.546 L 5.373 22.529 L 5.373 22.511 A 0.197 0.197 0 0 1 5.377 22.466 Q 5.391 22.405 5.45 22.395 A 0.148 0.148 0 0 1 5.476 22.393 A 0.157 0.157 0 0 1 5.498 22.394 Q 5.509 22.396 5.521 22.399 A 0.315 0.315 0 0 1 5.536 22.403 L 5.523 22.442 A 0.236 0.236 0 0 0 5.505 22.437 Q 5.496 22.434 5.487 22.433 A 0.105 0.105 0 0 0 5.475 22.433 A 0.066 0.066 0 0 0 5.459 22.434 A 0.042 0.042 0 0 0 5.434 22.451 A 0.056 0.056 0 0 0 5.427 22.466 Q 5.421 22.483 5.421 22.51 L 5.421 22.531 L 5.503 22.531 Z M 6.685 22.811 L 6.685 22.849 Q 6.677 22.852 6.662 22.855 A 0.211 0.211 0 0 1 6.648 22.857 Q 6.64 22.857 6.634 22.857 Q 6.541 22.857 6.541 22.759 L 6.541 22.568 L 6.495 22.568 L 6.495 22.545 L 6.541 22.525 L 6.561 22.456 L 6.589 22.456 L 6.589 22.531 L 6.682 22.531 L 6.682 22.568 L 6.589 22.568 L 6.589 22.757 A 0.098 0.098 0 0 0 6.591 22.774 Q 6.592 22.784 6.596 22.791 A 0.047 0.047 0 0 0 6.603 22.802 A 0.045 0.045 0 0 0 6.631 22.817 A 0.065 0.065 0 0 0 6.641 22.817 A 0.16 0.16 0 0 0 6.664 22.816 A 0.144 0.144 0 0 0 6.666 22.815 A 0.263 0.263 0 0 0 6.673 22.814 Q 6.676 22.814 6.679 22.813 A 0.101 0.101 0 0 0 6.684 22.812 Z M 5.746 22.528 L 5.74 22.573 A 0.214 0.214 0 0 0 5.724 22.57 Q 5.717 22.569 5.71 22.569 A 0.114 0.114 0 0 0 5.705 22.569 A 0.084 0.084 0 0 0 5.642 22.596 A 0.115 0.115 0 0 0 5.638 22.601 A 0.111 0.111 0 0 0 5.611 22.663 A 0.148 0.148 0 0 0 5.61 22.679 L 5.61 22.852 L 5.562 22.852 L 5.562 22.531 L 5.602 22.531 L 5.607 22.59 L 5.61 22.59 A 0.164 0.164 0 0 1 5.628 22.564 A 0.125 0.125 0 0 1 5.653 22.542 A 0.097 0.097 0 0 1 5.708 22.525 A 0.223 0.223 0 0 1 5.728 22.526 A 0.163 0.163 0 0 1 5.746 22.528 Z M 6.084 22.691 Q 6.084 22.769 6.044 22.813 A 0.13 0.13 0 0 1 5.968 22.855 A 0.189 0.189 0 0 1 5.935 22.857 A 0.156 0.156 0 0 1 5.889 22.851 A 0.135 0.135 0 0 1 5.858 22.837 A 0.132 0.132 0 0 1 5.81 22.786 A 0.16 0.16 0 0 1 5.807 22.779 A 0.18 0.18 0 0 1 5.792 22.73 A 0.243 0.243 0 0 1 5.789 22.691 Q 5.789 22.631 5.811 22.591 A 0.134 0.134 0 0 1 5.828 22.568 Q 5.867 22.525 5.937 22.525 A 0.163 0.163 0 0 1 5.985 22.531 A 0.127 0.127 0 0 1 6.044 22.569 A 0.151 0.151 0 0 1 6.077 22.634 Q 6.083 22.656 6.084 22.683 A 0.285 0.285 0 0 1 6.084 22.691 Z M 5.839 22.691 A 0.246 0.246 0 0 0 5.841 22.726 Q 5.847 22.762 5.864 22.785 Q 5.888 22.817 5.936 22.817 A 0.113 0.113 0 0 0 5.966 22.813 A 0.079 0.079 0 0 0 6.008 22.785 Q 6.027 22.761 6.032 22.721 A 0.256 0.256 0 0 0 6.033 22.691 Q 6.033 22.651 6.023 22.624 A 0.1 0.1 0 0 0 6.008 22.598 A 0.08 0.08 0 0 0 5.959 22.568 A 0.123 0.123 0 0 0 5.935 22.566 A 0.116 0.116 0 0 0 5.907 22.569 A 0.077 0.077 0 0 0 5.863 22.597 A 0.101 0.101 0 0 0 5.848 22.628 Q 5.843 22.641 5.841 22.658 A 0.257 0.257 0 0 0 5.839 22.691 Z" id="front_labelLayer" stroke="#777777" fill="#777777" style="stroke:#777777;fill:#777777" vector-effect="non-scaling-stroke"/><path d="M 12.243 21.125 L 12.243 22.079 L 12.125 22.079 L 12.125 23.171 L 12.243 23.171 L 12.243 24.125 L 13.213 24.125 L 13.213 24.007 L 14.305 24.007 L 14.305 24.125 L 15.396 24.125 L 15.396 24.007 L 16.488 24.007 L 16.488 24.125 L 17.579 24.125 L 17.579 24.007 L 18.671 24.007 L 18.671 24.125 L 19.762 24.125 L 19.762 24.007 L 20.854 24.007 L 20.854 24.125 L 21.945 24.125 L 21.945 24.007 L 23.037 24.007 L 23.037 24.125 L 24.007 24.125 L 24.007 23.171 L 24.125 23.171 L 24.125 22.079 L 24.007 22.079 L 24.007 21.125 L 23.037 21.125 L 23.037 21.243 L 21.945 21.243 L 21.945 21.125 L 20.854 21.125 L 20.854 21.243 L 19.762 21.243 L 19.762 21.125 L 18.671 21.125 L 18.671 21.243 L 17.579 21.243 L 17.579 21.125 L 16.488 21.125 L 16.488 21.243 L 15.396 21.243 L 15.396 21.125 L 14.305 21.125 L 14.305 21.243 L 13.213 21.243 L 13.213 21.125 L 12.243 21.125 Z" id="left_outsideCutPath" stroke="#FF0000" stroke-width="0.1" style="stroke:#FF0000;stroke-width:0.1" vector-effect="non-scaling-stroke"/><path d="M 18.338 22.531 L 18.338 22.568 L 18.257 22.568 L 18.257 22.852 L 18.208 22.852 L 18.208 22.568 L 18.151 22.568 L 18.151 22.546 L 18.208 22.529 L 18.208 22.511 A 0.197 0.197 0 0 1 18.213 22.466 Q 18.227 22.405 18.285 22.395 A 0.148 0.148 0 0 1 18.311 22.393 A 0.157 0.157 0 0 1 18.334 22.394 Q 18.344 22.396 18.356 22.399 A 0.315 0.315 0 0 1 18.371 22.403 L 18.359 22.442 A 0.236 0.236 0 0 0 18.34 22.437 Q 18.331 22.434 18.323 22.433 A 0.105 0.105 0 0 0 18.311 22.433 A 0.066 0.066 0 0 0 18.295 22.434 A 0.042 0.042 0 0 0 18.27 22.451 A 0.056 0.056 0 0 0 18.262 22.466 Q 18.257 22.483 18.257 22.51 L 18.257 22.531 L 18.338 22.531 Z M 18.111 22.669 L 18.111 22.7 L 17.89 22.7 A 0.195 0.195 0 0 0 17.893 22.733 Q 17.9 22.766 17.918 22.786 A 0.088 0.088 0 0 0 17.965 22.812 A 0.134 0.134 0 0 0 17.994 22.815 A 0.257 0.257 0 0 0 18.091 22.796 A 0.294 0.294 0 0 0 18.097 22.793 L 18.097 22.837 A 0.292 0.292 0 0 1 18.07 22.847 A 0.223 0.223 0 0 1 18.048 22.853 Q 18.03 22.856 18.007 22.857 A 0.396 0.396 0 0 1 17.993 22.857 A 0.189 0.189 0 0 1 17.945 22.852 A 0.134 0.134 0 0 1 17.88 22.814 A 0.143 0.143 0 0 1 17.846 22.751 Q 17.839 22.725 17.839 22.694 Q 17.839 22.616 17.877 22.57 A 0.125 0.125 0 0 1 17.968 22.525 A 0.172 0.172 0 0 1 17.98 22.525 A 0.148 0.148 0 0 1 18.022 22.53 A 0.113 0.113 0 0 1 18.076 22.564 A 0.136 0.136 0 0 1 18.106 22.626 A 0.198 0.198 0 0 1 18.111 22.669 Z M 18.545 22.811 L 18.545 22.849 Q 18.537 22.852 18.521 22.855 A 0.211 0.211 0 0 1 18.508 22.857 Q 18.5 22.857 18.494 22.857 Q 18.401 22.857 18.401 22.759 L 18.401 22.568 L 18.355 22.568 L 18.355 22.545 L 18.401 22.525 L 18.421 22.456 L 18.449 22.456 L 18.449 22.531 L 18.542 22.531 L 18.542 22.568 L 18.449 22.568 L 18.449 22.757 A 0.098 0.098 0 0 0 18.451 22.774 Q 18.452 22.784 18.456 22.791 A 0.047 0.047 0 0 0 18.463 22.802 A 0.045 0.045 0 0 0 18.491 22.817 A 0.065 0.065 0 0 0 18.501 22.817 A 0.16 0.16 0 0 0 18.524 22.816 A 0.144 0.144 0 0 0 18.526 22.815 A 0.263 0.263 0 0 0 18.533 22.814 Q 18.536 22.814 18.539 22.813 A 0.101 0.101 0 0 0 18.544 22.812 Z M 17.754 22.396 L 17.754 22.852 L 17.705 22.852 L 17.705 22.396 L 17.754 22.396 Z M 17.891 22.66 L 18.059 22.66 A 0.166 0.166 0 0 0 18.057 22.634 Q 18.052 22.607 18.038 22.59 A 0.067 0.067 0 0 0 17.998 22.567 A 0.1 0.1 0 0 0 17.98 22.565 A 0.096 0.096 0 0 0 17.952 22.569 A 0.074 0.074 0 0 0 17.918 22.591 A 0.096 0.096 0 0 0 17.899 22.623 Q 17.893 22.639 17.891 22.66 Z" id="left_labelLayer" stroke="#777777" fill="#777777" style="stroke:#777777;fill:#777777" vector-effect="non-scaling-stroke"/><path d="M 24.368 12.243 L 24.368 13.213 L 24.25 13.213 L 24.25 14.305 L 24.368 14.305 L 24.368 15.396 L 24.25 15.396 L 24.25 16.488 L 24.368 16.488 L 24.368 17.579 L 24.25 17.579 L 24.25 18.671 L 24.368 18.671 L 24.368 19.762 L 24.25 19.762 L 24.25 20.854 L 24.368 20.854 L 24.368 21.945 L 24.25 21.945 L 24.25 23.037 L 24.368 23.037 L 24.368 24.007 L 25.338 24.007 L 25.338 24.125 L 26.43 24.125 L 26.43 24.007 L 27.521 24.007 L 27.521 24.125 L 28.613 24.125 L 28.613 24.007 L 29.704 24.007 L 29.704 24.125 L 30.796 24.125 L 30.796 24.007 L 31.887 24.007 L 31.887 24.125 L 32.979 24.125 L 32.979 24.007 L 34.07 24.007 L 34.07 24.125 L 35.162 24.125 L 35.162 24.007 L 36.132 24.007 L 36.132 23.037 L 36.25 23.037 L 36.25 21.945 L 36.132 21.945 L 36.132 20.854 L 36.25 20.854 L 36.25 19.762 L 36.132 19.762 L 36.132 18.671 L 36.25 18.671 L 36.25 17.579 L 36.132 17.579 L 36.132 16.488 L 36.25 16.488 L 36.25 15.396 L 36.132 15.396 L 36.132 14.305 L 36.25 14.305 L 36.25 13.213 L 36.132 13.213 L 36.132 12.243 L 35.162 12.243 L 35.162 12.125 L 34.07 12.125 L 34.07 12.243 L 32.979 12.243 L 32.979 12.125 L 31.887 12.125 L 31.887 12.243 L 30.796 12.243 L 30.796 12.125 L 29.704 12.125 L 29.704 12.243 L 28.613 12.243 L 28.613 12.125 L 27.521 12.125 L 27.521 12.243 L 26.43 12.243 L 26.43 12.125 L 25.338 12.125 L 25.338 12.243 L 24.368 12.243 Z" id="top_outsideCutPath" stroke="#FF0000" stroke-width="0.1" style="stroke:#FF0000;stroke-width:0.1" vector-effect="non-scaling-stroke"/><path d="M 31.112 18.463 L 31.098 18.463 A 1.841 1.841 0 0 1 31.111 18.599 A 1.543 1.543 0 0 1 31.112 18.676 L 31.112 19.204 L 30.918 19.204 L 30.918 17.343 L 31.076 17.343 L 31.103 17.519 L 31.112 17.519 A 0.524 0.524 0 0 1 31.188 17.433 A 0.405 0.405 0 0 1 31.287 17.367 A 0.487 0.487 0 0 1 31.427 17.326 A 0.631 0.631 0 0 1 31.516 17.32 Q 31.771 17.32 31.91 17.495 Q 32.023 17.637 32.044 17.874 A 1.267 1.267 0 0 1 32.049 17.984 A 1.141 1.141 0 0 1 32.034 18.176 Q 32.016 18.279 31.979 18.361 A 0.547 0.547 0 0 1 31.908 18.476 A 0.461 0.461 0 0 1 31.58 18.648 A 0.66 0.66 0 0 1 31.516 18.651 A 0.59 0.59 0 0 1 31.367 18.633 A 0.513 0.513 0 0 1 31.287 18.605 A 0.431 0.431 0 0 1 31.112 18.463 Z M 29.212 18.467 L 29.212 18.616 A 0.191 0.191 0 0 1 29.189 18.625 Q 29.165 18.633 29.13 18.639 A 0.728 0.728 0 0 1 29.119 18.641 A 0.843 0.843 0 0 1 29.064 18.648 Q 29.038 18.651 29.014 18.651 A 0.498 0.498 0 0 1 29.008 18.651 Q 28.711 18.651 28.65 18.401 A 0.611 0.611 0 0 1 28.635 18.259 L 28.635 17.495 L 28.451 17.495 L 28.451 17.401 L 28.635 17.32 L 28.717 17.046 L 28.83 17.046 L 28.83 17.343 L 29.202 17.343 L 29.202 17.495 L 28.83 17.495 L 28.83 18.25 Q 28.83 18.332 28.857 18.387 A 0.189 0.189 0 0 0 28.885 18.429 A 0.181 0.181 0 0 0 28.996 18.488 A 0.26 0.26 0 0 0 29.036 18.491 A 0.639 0.639 0 0 0 29.13 18.484 A 0.592 0.592 0 0 0 29.136 18.483 A 1.053 1.053 0 0 0 29.164 18.478 Q 29.192 18.473 29.212 18.467 Z M 30.577 17.984 Q 30.577 18.298 30.419 18.475 Q 30.261 18.651 29.982 18.651 A 0.625 0.625 0 0 1 29.8 18.626 A 0.542 0.542 0 0 1 29.676 18.57 A 0.527 0.527 0 0 1 29.484 18.366 A 0.639 0.639 0 0 1 29.47 18.338 A 0.72 0.72 0 0 1 29.409 18.142 A 0.973 0.973 0 0 1 29.397 17.984 Q 29.397 17.745 29.488 17.587 A 0.537 0.537 0 0 1 29.554 17.495 A 0.515 0.515 0 0 1 29.854 17.332 A 0.756 0.756 0 0 1 29.99 17.32 Q 30.259 17.32 30.418 17.499 A 0.606 0.606 0 0 1 30.55 17.756 Q 30.577 17.86 30.577 17.984 Z M 29.64 18.254 A 0.408 0.408 0 0 0 29.697 18.359 Q 29.795 18.488 29.986 18.488 A 0.452 0.452 0 0 0 30.106 18.473 A 0.314 0.314 0 0 0 30.276 18.36 Q 30.375 18.232 30.375 17.984 Q 30.375 17.827 30.335 17.719 A 0.401 0.401 0 0 0 30.276 17.612 Q 30.177 17.485 29.984 17.485 A 0.463 0.463 0 0 0 29.869 17.499 A 0.31 0.31 0 0 0 29.696 17.611 Q 29.626 17.701 29.606 17.855 A 1.028 1.028 0 0 0 29.598 17.984 Q 29.598 18.144 29.64 18.254 Z M 31.112 17.941 L 31.112 17.984 Q 31.112 18.214 31.178 18.333 A 0.293 0.293 0 0 0 31.203 18.372 A 0.282 0.282 0 0 0 31.346 18.468 Q 31.394 18.483 31.452 18.487 A 0.626 0.626 0 0 0 31.492 18.488 A 0.328 0.328 0 0 0 31.62 18.464 Q 31.693 18.434 31.746 18.364 A 0.388 0.388 0 0 0 31.753 18.354 A 0.47 0.47 0 0 0 31.817 18.216 Q 31.847 18.115 31.847 17.982 A 0.982 0.982 0 0 0 31.838 17.843 Q 31.818 17.702 31.753 17.613 A 0.303 0.303 0 0 0 31.532 17.487 A 0.419 0.419 0 0 0 31.487 17.485 A 0.561 0.561 0 0 0 31.383 17.494 Q 31.324 17.505 31.28 17.53 A 0.257 0.257 0 0 0 31.203 17.594 Q 31.12 17.696 31.113 17.911 A 1.238 1.238 0 0 0 31.112 17.941 Z" id="top_labelLayer" stroke="#777777" fill="#777777" style="stroke:#777777;fill:#777777" vector-effect="non-scaling-stroke"/><path d="M 0 18 L 0 18.954 L 0.118 18.954 L 0.118 20.046 L 0 20.046 L 0 21 L 1.088 21 L 1.088 20.882 L 2.18 20.882 L 2.18 21 L 3.271 21 L 3.271 20.882 L 4.363 20.882 L 4.363 21 L 5.454 21 L 5.454 20.882 L 6.546 20.882 L 6.546 21 L 7.637 21 L 7.637 20.882 L 8.729 20.882 L 8.729 21 L 9.82 21 L 9.82 20.882 L 10.912 20.882 L 10.912 21 L 12 21 L 12 20.046 L 11.882 20.046 L 11.882 18.954 L 12 18.954 L 12 18 L 10.912 18 L 10.912 18.118 L 9.82 18.118 L 9.82 18 L 8.729 18 L 8.729 18.118 L 7.637 18.118 L 7.637 18 L 6.546 18 L 6.546 18.118 L 5.454 18.118 L 5.454 18 L 4.363 18 L 4.363 18.118 L 3.271 18.118 L 3.271 18 L 2.18 18 L 2.18 18.118 L 1.088 18.118 L 1.088 18 L 0 18 Z" id="back_outsideCutPath" stroke="#FF0000" stroke-width="0.1" style="stroke:#FF0000;stroke-width:0.1" vector-effect="non-scaling-stroke"/><path d="M 6.411 19.561 L 6.413 19.561 A 0.288 0.288 0 0 1 6.42 19.551 Q 6.428 19.54 6.44 19.527 A 1.046 1.046 0 0 1 6.451 19.514 L 6.555 19.404 L 6.613 19.404 L 6.483 19.541 L 6.622 19.725 L 6.563 19.725 L 6.45 19.573 L 6.413 19.605 L 6.413 19.725 L 6.365 19.725 L 6.365 19.269 L 6.413 19.269 L 6.413 19.511 A 0.324 0.324 0 0 1 6.413 19.52 Q 6.413 19.535 6.411 19.561 Z M 5.427 19.684 L 5.423 19.684 L 5.413 19.725 L 5.378 19.725 L 5.378 19.269 L 5.427 19.269 L 5.427 19.38 A 1.014 1.014 0 0 1 5.426 19.414 Q 5.426 19.43 5.424 19.445 A 0.612 0.612 0 0 1 5.424 19.447 L 5.427 19.447 Q 5.461 19.399 5.527 19.399 A 0.149 0.149 0 0 1 5.569 19.404 A 0.111 0.111 0 0 1 5.626 19.442 A 0.143 0.143 0 0 1 5.651 19.49 Q 5.657 19.51 5.659 19.534 A 0.312 0.312 0 0 1 5.661 19.564 Q 5.661 19.643 5.625 19.687 A 0.115 0.115 0 0 1 5.544 19.73 A 0.165 0.165 0 0 1 5.527 19.731 A 0.148 0.148 0 0 1 5.49 19.726 A 0.128 0.128 0 0 1 5.47 19.719 A 0.108 0.108 0 0 1 5.427 19.684 Z M 5.979 19.725 L 5.943 19.725 L 5.933 19.679 L 5.931 19.679 A 0.202 0.202 0 0 1 5.915 19.698 Q 5.899 19.713 5.883 19.72 A 0.112 0.112 0 0 1 5.86 19.727 Q 5.849 19.73 5.836 19.731 A 0.219 0.219 0 0 1 5.824 19.731 Q 5.776 19.731 5.749 19.706 A 0.08 0.08 0 0 1 5.725 19.664 A 0.122 0.122 0 0 1 5.722 19.636 A 0.084 0.084 0 0 1 5.77 19.557 Q 5.805 19.538 5.867 19.535 A 0.474 0.474 0 0 1 5.877 19.534 L 5.932 19.533 L 5.932 19.513 Q 5.932 19.489 5.926 19.474 A 0.054 0.054 0 0 0 5.915 19.457 A 0.049 0.049 0 0 0 5.895 19.444 Q 5.887 19.441 5.877 19.44 A 0.12 0.12 0 0 0 5.863 19.439 A 0.158 0.158 0 0 0 5.827 19.443 Q 5.81 19.447 5.792 19.455 A 0.326 0.326 0 0 0 5.773 19.463 L 5.758 19.426 A 0.224 0.224 0 0 1 5.801 19.408 A 0.255 0.255 0 0 1 5.81 19.406 Q 5.838 19.399 5.866 19.399 A 0.205 0.205 0 0 1 5.898 19.401 Q 5.914 19.403 5.927 19.409 A 0.083 0.083 0 0 1 5.952 19.424 A 0.077 0.077 0 0 1 5.971 19.455 Q 5.979 19.476 5.979 19.506 L 5.979 19.725 Z M 6.294 19.415 L 6.279 19.456 A 0.216 0.216 0 0 0 6.255 19.448 A 0.258 0.258 0 0 0 6.243 19.445 Q 6.227 19.442 6.214 19.441 A 0.108 0.108 0 0 0 6.21 19.441 A 0.108 0.108 0 0 0 6.166 19.449 Q 6.12 19.47 6.113 19.54 A 0.269 0.269 0 0 0 6.112 19.566 Q 6.112 19.605 6.122 19.632 A 0.101 0.101 0 0 0 6.136 19.657 A 0.077 0.077 0 0 0 6.186 19.687 A 0.118 0.118 0 0 0 6.207 19.688 A 0.204 0.204 0 0 0 6.263 19.68 A 0.251 0.251 0 0 0 6.289 19.671 L 6.289 19.714 A 0.138 0.138 0 0 1 6.255 19.726 Q 6.239 19.73 6.221 19.731 A 0.267 0.267 0 0 1 6.208 19.731 A 0.182 0.182 0 0 1 6.163 19.726 A 0.123 0.123 0 0 1 6.1 19.688 Q 6.067 19.651 6.062 19.587 A 0.294 0.294 0 0 1 6.062 19.567 Q 6.062 19.508 6.082 19.469 A 0.134 0.134 0 0 1 6.1 19.442 A 0.126 0.126 0 0 1 6.169 19.402 A 0.191 0.191 0 0 1 6.211 19.398 A 0.219 0.219 0 0 1 6.257 19.403 A 0.243 0.243 0 0 1 6.271 19.406 Q 6.284 19.41 6.293 19.415 Z M 5.52 19.439 A 0.137 0.137 0 0 0 5.494 19.442 Q 5.479 19.445 5.467 19.451 A 0.065 0.065 0 0 0 5.449 19.468 Q 5.429 19.493 5.427 19.548 A 0.375 0.375 0 0 0 5.427 19.564 A 0.322 0.322 0 0 0 5.428 19.597 Q 5.433 19.64 5.449 19.661 A 0.071 0.071 0 0 0 5.485 19.685 Q 5.497 19.689 5.512 19.69 A 0.156 0.156 0 0 0 5.522 19.69 A 0.097 0.097 0 0 0 5.549 19.686 A 0.07 0.07 0 0 0 5.588 19.657 A 0.112 0.112 0 0 0 5.602 19.628 Q 5.61 19.601 5.61 19.564 A 0.287 0.287 0 0 0 5.609 19.531 Q 5.604 19.495 5.591 19.473 A 0.081 0.081 0 0 0 5.588 19.47 A 0.071 0.071 0 0 0 5.543 19.442 A 0.112 0.112 0 0 0 5.52 19.439 Z M 5.931 19.596 L 5.931 19.567 L 5.882 19.569 Q 5.833 19.571 5.808 19.582 A 0.075 0.075 0 0 0 5.798 19.587 A 0.052 0.052 0 0 0 5.774 19.625 A 0.077 0.077 0 0 0 5.773 19.637 A 0.069 0.069 0 0 0 5.774 19.653 Q 5.778 19.668 5.789 19.677 A 0.053 0.053 0 0 0 5.808 19.687 Q 5.819 19.691 5.833 19.691 A 0.134 0.134 0 0 0 5.862 19.688 Q 5.882 19.683 5.897 19.672 A 0.081 0.081 0 0 0 5.905 19.666 A 0.081 0.081 0 0 0 5.927 19.625 A 0.124 0.124 0 0 0 5.931 19.597 Z" id="back_labelLayer" stroke="#777777" fill="#777777" style="stroke:#777777;fill:#777777" vector-effect="non-scaling-stroke"/><path d="M 12.243 18 L 12.243 18.954 L 12.125 18.954 L 12.125 20.046 L 12.243 20.046 L 12.243 21 L 13.213 21 L 13.213 20.882 L 14.305 20.882 L 14.305 21 L 15.396 21 L 15.396 20.882 L 16.488 20.882 L 16.488 21 L 17.579 21 L 17.579 20.882 L 18.671 20.882 L 18.671 21 L 19.762 21 L 19.762 20.882 L 20.854 20.882 L 20.854 21 L 21.945 21 L 21.945 20.882 L 23.037 20.882 L 23.037 21 L 24.007 21 L 24.007 20.046 L 24.125 20.046 L 24.125 18.954 L 24.007 18.954 L 24.007 18 L 23.037 18 L 23.037 18.118 L 21.945 18.118 L 21.945 18 L 20.854 18 L 20.854 18.118 L 19.762 18.118 L 19.762 18 L 18.671 18 L 18.671 18.118 L 17.579 18.118 L 17.579 18 L 16.488 18 L 16.488 18.118 L 15.396 18.118 L 15.396 18 L 14.305 18 L 14.305 18.118 L 13.213 18.118 L 13.213 18 L 12.243 18 Z" id="right_outsideCutPath" stroke="#FF0000" stroke-width="0.1" style="stroke:#FF0000;stroke-width:0.1" vector-effect="non-scaling-stroke"/><path d="M 18.498 19.656 L 18.449 19.656 L 18.449 19.448 Q 18.449 19.423 18.442 19.406 A 0.058 0.058 0 0 0 18.432 19.39 Q 18.417 19.374 18.389 19.371 A 0.129 0.129 0 0 0 18.376 19.37 A 0.147 0.147 0 0 0 18.348 19.373 Q 18.318 19.378 18.302 19.398 Q 18.28 19.423 18.279 19.477 A 0.314 0.314 0 0 0 18.278 19.488 L 18.278 19.656 L 18.23 19.656 L 18.23 19.2 L 18.278 19.2 L 18.278 19.338 A 0.437 0.437 0 0 1 18.278 19.355 Q 18.278 19.363 18.277 19.369 A 0.19 0.19 0 0 1 18.276 19.379 L 18.279 19.379 A 0.097 0.097 0 0 1 18.313 19.347 A 0.119 0.119 0 0 1 18.32 19.343 A 0.125 0.125 0 0 1 18.361 19.331 A 0.158 0.158 0 0 1 18.38 19.329 Q 18.419 19.329 18.445 19.342 A 0.088 0.088 0 0 1 18.469 19.357 A 0.085 0.085 0 0 1 18.49 19.39 Q 18.495 19.404 18.497 19.421 A 0.21 0.21 0 0 1 18.498 19.446 L 18.498 19.656 Z M 18.053 19.335 L 18.164 19.335 L 18.164 19.366 L 18.104 19.373 A 0.079 0.079 0 0 1 18.111 19.383 Q 18.114 19.388 18.117 19.394 A 0.15 0.15 0 0 1 18.119 19.399 A 0.094 0.094 0 0 1 18.125 19.422 A 0.12 0.12 0 0 1 18.125 19.437 A 0.111 0.111 0 0 1 18.12 19.471 A 0.09 0.09 0 0 1 18.093 19.512 A 0.108 0.108 0 0 1 18.051 19.534 Q 18.035 19.539 18.016 19.54 A 0.211 0.211 0 0 1 18.005 19.54 A 0.156 0.156 0 0 1 17.987 19.539 A 0.132 0.132 0 0 1 17.978 19.538 A 0.087 0.087 0 0 0 17.964 19.547 Q 17.957 19.553 17.952 19.559 A 0.037 0.037 0 0 0 17.947 19.579 A 0.025 0.025 0 0 0 17.948 19.587 A 0.02 0.02 0 0 0 17.957 19.598 Q 17.966 19.604 17.985 19.605 A 0.185 0.185 0 0 0 17.995 19.605 L 18.052 19.605 Q 18.086 19.605 18.11 19.615 A 0.088 0.088 0 0 1 18.132 19.627 A 0.071 0.071 0 0 1 18.158 19.672 A 0.107 0.107 0 0 1 18.16 19.691 Q 18.16 19.743 18.119 19.771 A 0.113 0.113 0 0 1 18.117 19.772 A 0.146 0.146 0 0 1 18.079 19.789 Q 18.061 19.795 18.038 19.797 A 0.385 0.385 0 0 1 17.992 19.8 A 0.272 0.272 0 0 1 17.956 19.798 Q 17.937 19.795 17.922 19.79 A 0.113 0.113 0 0 1 17.895 19.777 Q 17.863 19.755 17.861 19.716 A 0.103 0.103 0 0 1 17.861 19.71 A 0.074 0.074 0 0 1 17.88 19.66 A 0.085 0.085 0 0 1 17.909 19.638 A 0.12 0.12 0 0 1 17.932 19.631 Q 17.92 19.625 17.912 19.613 A 0.045 0.045 0 0 1 17.903 19.589 A 0.056 0.056 0 0 1 17.903 19.586 Q 17.903 19.569 17.913 19.555 Q 17.92 19.545 17.933 19.536 A 0.153 0.153 0 0 1 17.942 19.53 A 0.085 0.085 0 0 1 17.905 19.5 A 0.106 0.106 0 0 1 17.902 19.495 A 0.101 0.101 0 0 1 17.886 19.447 A 0.123 0.123 0 0 1 17.886 19.439 A 0.141 0.141 0 0 1 17.89 19.406 A 0.092 0.092 0 0 1 17.918 19.357 A 0.103 0.103 0 0 1 17.957 19.336 Q 17.973 19.331 17.992 19.329 A 0.215 0.215 0 0 1 18.007 19.329 A 0.186 0.186 0 0 1 18.032 19.33 A 0.142 0.142 0 0 1 18.053 19.335 Z M 18.746 19.616 L 18.746 19.653 Q 18.738 19.657 18.722 19.659 A 0.211 0.211 0 0 1 18.709 19.661 Q 18.701 19.662 18.695 19.662 Q 18.602 19.662 18.602 19.564 L 18.602 19.373 L 18.556 19.373 L 18.556 19.349 L 18.602 19.329 L 18.622 19.26 L 18.65 19.26 L 18.65 19.335 L 18.743 19.335 L 18.743 19.373 L 18.65 19.373 L 18.65 19.562 A 0.098 0.098 0 0 0 18.652 19.579 Q 18.653 19.588 18.657 19.596 A 0.047 0.047 0 0 0 18.664 19.606 A 0.045 0.045 0 0 0 18.692 19.621 A 0.065 0.065 0 0 0 18.702 19.622 A 0.16 0.16 0 0 0 18.725 19.62 A 0.144 0.144 0 0 0 18.727 19.62 A 0.263 0.263 0 0 0 18.734 19.618 Q 18.737 19.618 18.74 19.617 A 0.101 0.101 0 0 0 18.745 19.616 Z M 17.689 19.332 L 17.682 19.378 A 0.214 0.214 0 0 0 17.667 19.375 Q 17.659 19.374 17.653 19.373 A 0.114 0.114 0 0 0 17.647 19.373 A 0.084 0.084 0 0 0 17.585 19.4 A 0.115 0.115 0 0 0 17.581 19.405 A 0.111 0.111 0 0 0 17.554 19.467 A 0.148 0.148 0 0 0 17.553 19.484 L 17.553 19.656 L 17.504 19.656 L 17.504 19.335 L 17.544 19.335 L 17.55 19.394 L 17.552 19.394 A 0.164 0.164 0 0 1 17.571 19.368 A 0.125 0.125 0 0 1 17.595 19.346 A 0.097 0.097 0 0 1 17.651 19.329 A 0.223 0.223 0 0 1 17.671 19.33 A 0.163 0.163 0 0 1 17.689 19.332 Z M 17.798 19.335 L 17.798 19.656 L 17.749 19.656 L 17.749 19.335 L 17.798 19.335 Z M 18.036 19.649 L 17.978 19.649 A 0.112 0.112 0 0 0 17.958 19.65 Q 17.939 19.654 17.926 19.664 A 0.051 0.051 0 0 0 17.909 19.693 A 0.078 0.078 0 0 0 17.908 19.71 Q 17.908 19.734 17.927 19.747 A 0.057 0.057 0 0 0 17.93 19.749 A 0.078 0.078 0 0 0 17.949 19.758 Q 17.958 19.76 17.969 19.761 A 0.199 0.199 0 0 0 17.992 19.763 A 0.327 0.327 0 0 0 18.025 19.761 Q 18.057 19.758 18.077 19.748 A 0.081 0.081 0 0 0 18.083 19.744 A 0.071 0.071 0 0 0 18.1 19.731 A 0.053 0.053 0 0 0 18.113 19.695 Q 18.113 19.679 18.107 19.669 A 0.031 0.031 0 0 0 18.097 19.659 Q 18.084 19.651 18.056 19.649 A 0.309 0.309 0 0 0 18.036 19.649 Z M 17.934 19.438 A 0.095 0.095 0 0 0 17.936 19.457 Q 17.939 19.47 17.945 19.479 A 0.052 0.052 0 0 0 17.953 19.489 A 0.063 0.063 0 0 0 17.978 19.502 Q 17.988 19.505 18 19.506 A 0.125 0.125 0 0 0 18.006 19.506 A 0.106 0.106 0 0 0 18.034 19.503 Q 18.066 19.494 18.074 19.463 A 0.099 0.099 0 0 0 18.077 19.437 Q 18.077 19.379 18.032 19.367 A 0.106 0.106 0 0 0 18.005 19.364 Q 17.971 19.364 17.953 19.383 A 0.058 0.058 0 0 0 17.938 19.407 Q 17.935 19.416 17.935 19.427 A 0.128 0.128 0 0 0 17.934 19.438 Z M 17.745 19.248 Q 17.745 19.231 17.753 19.223 A 0.028 0.028 0 0 1 17.771 19.216 A 0.037 0.037 0 0 1 17.774 19.216 Q 17.786 19.216 17.794 19.223 A 0.025 0.025 0 0 1 17.801 19.234 Q 17.802 19.238 17.802 19.242 A 0.056 0.056 0 0 1 17.803 19.248 A 0.05 0.05 0 0 1 17.802 19.257 Q 17.801 19.262 17.799 19.266 A 0.024 0.024 0 0 1 17.794 19.272 Q 17.786 19.28 17.774 19.28 A 0.031 0.031 0 0 1 17.763 19.279 A 0.027 0.027 0 0 1 17.753 19.272 A 0.025 0.025 0 0 1 17.747 19.262 Q 17.746 19.258 17.745 19.253 A 0.057 0.057 0 0 1 17.745 19.248 Z" id="right_labelLayer" stroke="#777777" fill="#777777" style="stroke:#777777;fill:#777777" vector-effect="non-scaling-stroke"/><path d="M 24.368 0.118 L 24.368 1.088 L 24.25 1.088 L 24.25 2.18 L 24.368 2.18 L 24.368 3.271 L 24.25 3.271 L 24.25 4.363 L 24.368 4.363 L 24.368 5.454 L 24.25 5.454 L 24.25 6.546 L 24.368 6.546 L 24.368 7.637 L 24.25 7.637 L 24.25 8.729 L 24.368 8.729 L 24.368 9.82 L 24.25 9.82 L 24.25 10.912 L 24.368 10.912 L 24.368 11.882 L 25.338 11.882 L 25.338 12 L 26.43 12 L 26.43 11.882 L 27.521 11.882 L 27.521 12 L 28.613 12 L 28.613 11.882 L 29.704 11.882 L 29.704 12 L 30.796 12 L 30.796 11.882 L 31.887 11.882 L 31.887 12 L 32.979 12 L 32.979 11.882 L 34.07 11.882 L 34.07 12 L 35.162 12 L 35.162 11.882 L 36.132 11.882 L 36.132 10.912 L 36.25 10.912 L 36.25 9.82 L 36.132 9.82 L 36.132 8.729 L 36.25 8.729 L 36.25 7.637 L 36.132 7.637 L 36.132 6.546 L 36.25 6.546 L 36.25 5.454 L 36.132 5.454 L 36.132 4.363 L 36.25 4.363 L 36.25 3.271 L 36.132 3.271 L 36.132 2.18 L 36.25 2.18 L 36.25 1.088 L 36.132 1.088 L 36.132 0.118 L 35.162 0.118 L 35.162 0 L 34.07 0 L 34.07 0.118 L 32.979 0.118 L 32.979 0 L 31.887 0 L 31.887 0.118 L 30.796 0.118 L 30.796 0 L 29.704 0 L 29.704 0.118 L 28.613 0.118 L 28.613 0 L 27.521 0 L 27.521 0.118 L 26.43 0.118 L 26.43 0 L 25.338 0 L 25.338 0.118 L 24.368 0.118 Z" id="bottom_outsideCutPath" stroke="#FF0000" stroke-width="0.1" style="stroke:#FF0000;stroke-width:0.1" vector-effect="non-scaling-stroke"/><path d="M 34.198 6.9 L 34.004 6.9 L 34.004 6.064 A 0.574 0.574 0 0 0 33.998 5.98 Q 33.991 5.937 33.978 5.902 A 0.235 0.235 0 0 0 33.938 5.834 Q 33.872 5.757 33.734 5.757 Q 33.552 5.757 33.466 5.862 A 0.321 0.321 0 0 0 33.411 5.96 Q 33.379 6.05 33.379 6.181 A 0.996 0.996 0 0 0 33.379 6.183 L 33.379 6.9 L 33.184 6.9 L 33.184 6.064 A 0.574 0.574 0 0 0 33.179 5.98 Q 33.172 5.937 33.159 5.902 A 0.235 0.235 0 0 0 33.119 5.834 A 0.204 0.204 0 0 0 33.025 5.773 Q 32.977 5.757 32.914 5.757 A 0.483 0.483 0 0 0 32.814 5.767 Q 32.752 5.78 32.706 5.811 A 0.255 0.255 0 0 0 32.646 5.867 Q 32.561 5.977 32.561 6.226 L 32.561 6.9 L 32.366 6.9 L 32.366 5.616 L 32.525 5.616 L 32.556 5.791 L 32.566 5.791 A 0.382 0.382 0 0 1 32.721 5.645 A 0.462 0.462 0 0 1 32.903 5.594 A 0.558 0.558 0 0 1 32.945 5.592 Q 33.246 5.592 33.339 5.81 L 33.348 5.81 A 0.406 0.406 0 0 1 33.501 5.658 A 0.488 0.488 0 0 1 33.515 5.651 A 0.492 0.492 0 0 1 33.695 5.596 A 0.614 0.614 0 0 1 33.763 5.592 A 0.676 0.676 0 0 1 33.886 5.603 Q 34.014 5.626 34.09 5.704 A 0.335 0.335 0 0 1 34.162 5.822 Q 34.181 5.874 34.19 5.938 A 0.892 0.892 0 0 1 34.198 6.062 L 34.198 6.9 Z M 26.496 6.735 L 26.482 6.735 L 26.441 6.9 L 26.302 6.9 L 26.302 5.077 L 26.496 5.077 L 26.496 5.52 A 4.056 4.056 0 0 1 26.494 5.657 Q 26.492 5.721 26.488 5.779 A 2.456 2.456 0 0 1 26.487 5.787 L 26.496 5.787 A 0.442 0.442 0 0 1 26.819 5.599 A 0.664 0.664 0 0 1 26.9 5.595 A 0.595 0.595 0 0 1 27.067 5.617 A 0.445 0.445 0 0 1 27.293 5.767 A 0.573 0.573 0 0 1 27.393 5.961 Q 27.418 6.041 27.427 6.136 A 1.249 1.249 0 0 1 27.433 6.257 A 1.141 1.141 0 0 1 27.418 6.449 Q 27.4 6.551 27.362 6.633 A 0.547 0.547 0 0 1 27.292 6.748 A 0.461 0.461 0 0 1 26.964 6.92 A 0.66 0.66 0 0 1 26.9 6.923 A 0.59 0.59 0 0 1 26.751 6.905 A 0.513 0.513 0 0 1 26.671 6.877 A 0.431 0.431 0 0 1 26.496 6.735 Z M 29.813 6.739 L 29.813 6.888 A 0.191 0.191 0 0 1 29.79 6.897 Q 29.766 6.905 29.731 6.911 A 0.728 0.728 0 0 1 29.72 6.913 A 0.843 0.843 0 0 1 29.665 6.921 Q 29.639 6.923 29.616 6.923 A 0.498 0.498 0 0 1 29.609 6.923 Q 29.312 6.923 29.252 6.674 A 0.611 0.611 0 0 1 29.236 6.531 L 29.236 5.767 L 29.052 5.767 L 29.052 5.673 L 29.236 5.592 L 29.318 5.318 L 29.431 5.318 L 29.431 5.616 L 29.804 5.616 L 29.804 5.767 L 29.431 5.767 L 29.431 6.523 Q 29.431 6.604 29.458 6.659 A 0.189 0.189 0 0 0 29.486 6.701 A 0.181 0.181 0 0 0 29.597 6.76 A 0.26 0.26 0 0 0 29.637 6.763 A 0.639 0.639 0 0 0 29.731 6.756 A 0.592 0.592 0 0 0 29.737 6.755 A 1.053 1.053 0 0 0 29.765 6.75 Q 29.794 6.745 29.813 6.739 Z M 30.66 6.739 L 30.66 6.888 A 0.191 0.191 0 0 1 30.637 6.897 Q 30.613 6.905 30.579 6.911 A 0.728 0.728 0 0 1 30.567 6.913 A 0.843 0.843 0 0 1 30.512 6.921 Q 30.486 6.923 30.463 6.923 A 0.498 0.498 0 0 1 30.456 6.923 Q 30.159 6.923 30.099 6.674 A 0.611 0.611 0 0 1 30.084 6.531 L 30.084 5.767 L 29.9 5.767 L 29.9 5.673 L 30.084 5.592 L 30.166 5.318 L 30.278 5.318 L 30.278 5.616 L 30.651 5.616 L 30.651 5.767 L 30.278 5.767 L 30.278 6.523 Q 30.278 6.604 30.305 6.659 A 0.189 0.189 0 0 0 30.333 6.701 A 0.181 0.181 0 0 0 30.444 6.76 A 0.26 0.26 0 0 0 30.484 6.763 A 0.639 0.639 0 0 0 30.578 6.756 A 0.592 0.592 0 0 0 30.584 6.755 A 1.053 1.053 0 0 0 30.612 6.75 Q 30.641 6.745 30.66 6.739 Z M 28.881 6.257 Q 28.881 6.571 28.723 6.747 Q 28.565 6.923 28.286 6.923 A 0.625 0.625 0 0 1 28.104 6.898 A 0.542 0.542 0 0 1 27.98 6.843 A 0.527 0.527 0 0 1 27.788 6.638 A 0.639 0.639 0 0 1 27.774 6.611 A 0.72 0.72 0 0 1 27.713 6.414 A 0.973 0.973 0 0 1 27.701 6.257 Q 27.701 6.017 27.792 5.859 A 0.537 0.537 0 0 1 27.858 5.767 A 0.515 0.515 0 0 1 28.158 5.604 A 0.756 0.756 0 0 1 28.294 5.592 Q 28.564 5.592 28.722 5.771 A 0.606 0.606 0 0 1 28.855 6.028 Q 28.881 6.132 28.881 6.257 Z M 32.025 6.257 Q 32.025 6.571 31.867 6.747 Q 31.709 6.923 31.43 6.923 A 0.625 0.625 0 0 1 31.249 6.898 A 0.542 0.542 0 0 1 31.124 6.843 A 0.527 0.527 0 0 1 30.932 6.638 A 0.639 0.639 0 0 1 30.918 6.611 A 0.72 0.72 0 0 1 30.858 6.414 A 0.973 0.973 0 0 1 30.845 6.257 Q 30.845 6.017 30.936 5.859 A 0.537 0.537 0 0 1 31.002 5.767 A 0.515 0.515 0 0 1 31.303 5.604 A 0.756 0.756 0 0 1 31.438 5.592 Q 31.708 5.592 31.867 5.771 A 0.606 0.606 0 0 1 31.999 6.028 Q 32.025 6.132 32.025 6.257 Z M 27.944 6.527 A 0.408 0.408 0 0 0 28.001 6.632 Q 28.1 6.761 28.291 6.761 A 0.452 0.452 0 0 0 28.41 6.746 A 0.314 0.314 0 0 0 28.581 6.632 Q 28.68 6.504 28.68 6.257 Q 28.68 6.099 28.639 5.991 A 0.401 0.401 0 0 0 28.581 5.885 Q 28.482 5.757 28.288 5.757 A 0.463 0.463 0 0 0 28.173 5.771 A 0.31 0.31 0 0 0 28 5.883 Q 27.93 5.973 27.91 6.127 A 1.028 1.028 0 0 0 27.903 6.257 Q 27.903 6.416 27.944 6.527 Z M 31.088 6.527 A 0.408 0.408 0 0 0 31.145 6.632 Q 31.244 6.761 31.435 6.761 A 0.452 0.452 0 0 0 31.554 6.746 A 0.314 0.314 0 0 0 31.725 6.632 Q 31.824 6.504 31.824 6.257 Q 31.824 6.099 31.783 5.991 A 0.401 0.401 0 0 0 31.725 5.885 Q 31.626 5.757 31.432 5.757 A 0.463 0.463 0 0 0 31.317 5.771 A 0.31 0.31 0 0 0 31.144 5.883 Q 31.074 5.973 31.055 6.127 A 1.028 1.028 0 0 0 31.047 6.257 Q 31.047 6.416 31.088 6.527 Z M 26.871 5.757 Q 26.672 5.757 26.584 5.872 Q 26.496 5.986 26.496 6.257 Q 26.496 6.487 26.562 6.605 A 0.293 0.293 0 0 0 26.587 6.644 A 0.282 0.282 0 0 0 26.73 6.741 Q 26.778 6.756 26.836 6.759 A 0.626 0.626 0 0 0 26.876 6.761 A 0.388 0.388 0 0 0 26.986 6.746 A 0.28 0.28 0 0 0 27.143 6.63 A 0.447 0.447 0 0 0 27.199 6.51 Q 27.216 6.454 27.224 6.385 A 1.115 1.115 0 0 0 27.231 6.254 A 1.149 1.149 0 0 0 27.224 6.123 Q 27.208 5.98 27.152 5.894 A 0.323 0.323 0 0 0 27.143 5.88 A 0.284 0.284 0 0 0 26.963 5.766 A 0.45 0.45 0 0 0 26.871 5.757 Z" id="bottom_labelLayer" stroke="#777777" fill="#777777" style="stroke:#777777;fill:#777777" vector-effect="non-scaling-stroke"/></g></svg>